HIERARCHY
ROOT Hips
{
	OFFSET 0.000000 88.474243 0.000000
	CHANNELS 6 Xposition Yposition Zposition Zrotation Yrotation Xrotation 
	JOINT Hips_Spine
	{
		OFFSET 0.000000 0.000000 0.000000
		CHANNELS 3 Zrotation Yrotation Xrotation
		JOINT Spine
		{
			OFFSET 0.005100 8.711998 -0.691000
			CHANNELS 3 Zrotation Yrotation Xrotation
			JOINT Spine1
			{
				OFFSET -0.009200 8.660301 -1.275000
				CHANNELS 3 Zrotation Yrotation Xrotation
				JOINT Spine2
				{
					OFFSET 0.006300 9.852501 -1.857000
					CHANNELS 3 Zrotation Yrotation Xrotation
					JOINT Spine2_Neck
					{
						OFFSET 0.000000 0.000000 0.000000
						CHANNELS 3 Zrotation Yrotation Xrotation
						JOINT Neck
						{
							OFFSET 0.016300 11.420799 -0.263300
							CHANNELS 3 Zrotation Yrotation Xrotation
							End Site #name: Head
							{
								OFFSET -0.019200 9.262405 2.362500
							}
						}
					}
					JOINT Spine2_LeftShoulder
					{
						OFFSET 0.000000 0.000000 0.000000
						CHANNELS 3 Zrotation Yrotation Xrotation
						JOINT LeftShoulder
						{
							OFFSET 5.616900 6.732201 -0.345700
							CHANNELS 3 Zrotation Yrotation Xrotation
							JOINT LeftArm
							{
								OFFSET 10.664888 -0.183372 -2.440700
								CHANNELS 3 Zrotation Yrotation Xrotation
								JOINT LeftForeArm
								{
									OFFSET 27.459126 0.000000 0.000000
									CHANNELS 3 Zrotation Yrotation Xrotation
									End Site #name: LeftHand
									{
										OFFSET 21.306858 0.000000 0.000000
									}
								}
							}
						}
					}
					JOINT Spine2_RightShoulder
					{
						OFFSET 0.000000 0.000000 0.000000
						CHANNELS 3 Zrotation Yrotation Xrotation
						JOINT RightShoulder
						{
							OFFSET -5.580300 6.737503 -0.344400
							CHANNELS 3 Zrotation Yrotation Xrotation
							JOINT RightArm
							{
								OFFSET -10.679335 -0.188484 -2.383900
								CHANNELS 3 Zrotation Yrotation Xrotation
								JOINT RightForeArm
								{
									OFFSET -27.503529 0.000000 0.000000
									CHANNELS 3 Zrotation Yrotation Xrotation
									End Site #name: RightHand
									{
										OFFSET -21.306808 0.000000 0.000000
									}
								}
							}
						}
					}
				}
			}
		}
	}
	JOINT Hips_LeftUpLeg
	{
		OFFSET 0.000000 0.000000 0.000000
		CHANNELS 3 Zrotation Yrotation Xrotation
		JOINT LeftUpLeg
		{
			OFFSET 6.857700 -6.739601 0.312100
			CHANNELS 3 Zrotation Yrotation Xrotation
			JOINT LeftLeg
			{
				OFFSET -0.367590 -34.731552 -4.572400
				CHANNELS 3 Zrotation Yrotation Xrotation
				End Site #name: LeftFoot
				{
					OFFSET 0.367590 -34.656704 -6.067400
				}
			}
		}
	}
	JOINT Hips_RightUpLeg
	{
		OFFSET 0.000000 0.000000 0.000000
		CHANNELS 3 Zrotation Yrotation Xrotation
		JOINT RightUpLeg
		{
			OFFSET -6.876100 -6.733299 0.301000
			CHANNELS 3 Zrotation Yrotation Xrotation
			JOINT RightLeg
			{
				OFFSET 0.347353 -34.795158 -4.515900
				CHANNELS 3 Zrotation Yrotation Xrotation
				End Site #name: RightFoot
				{
					OFFSET -0.347353 -34.589367 -6.070300
				}
			}
		}
	}
}
MOTION
Frames: 12
Frame Time: 0.041667
-0.079374 0.065765 0.038617 -4.184418 -0.212320 -1.774271 -0.000000 0.000000 0.000000 -0.773538 0.898974 5.586798 -1.778526 1.355966 9.963901 0.000000 0.000000 0.000000 -1.998428 1.437664 9.271525 -1.383980 -3.618344 4.402111 -2.052695 1.248851 10.306274 -0.657468 -0.509039 0.333889 -69.376954 -24.064998 21.899144 173.286843 -84.710642 -173.500992 -1.861667 1.686839 10.723454 -5.105511 -0.623656 1.332866 77.987712 -5.858082 6.291372 175.973926 83.118242 177.774074 0.000000 -0.000000 0.000000 6.720868 0.993090 -19.160319 -1.052432 0.831185 34.127868 -0.000000 0.000000 -0.000000 -4.395877 -2.942268 -15.627761 -0.354126 -2.160423 26.803631 
0.027161 0.092776 0.148804 -5.319426 -3.828860 -1.620867 -0.000000 0.000000 0.000000 -0.799920 0.490655 5.059897 -2.152259 1.508886 10.192622 0.000000 0.000000 0.000000 -1.890158 1.433903 10.136647 -2.063133 -4.019150 5.442407 -2.069139 1.548089 10.900431 1.023600 1.040609 -0.150430 -69.469364 -22.999650 31.227524 177.619113 -83.223979 -177.603059 -1.968288 1.268230 10.280146 -5.801399 -2.060577 0.809621 83.517680 -7.738789 7.106137 -169.457052 86.041720 -169.712415 0.000000 -0.000000 0.000000 6.870138 -0.138239 -22.680417 -0.586318 0.936645 32.258778 -0.000000 0.000000 -0.000000 -3.646599 -4.083251 -15.911348 0.828543 -0.573414 26.094624 
0.152841 0.080778 0.139914 -4.760441 -5.227480 -2.778005 -0.000000 -0.000000 -0.000000 -0.721654 0.518521 5.015727 -2.161963 1.448906 10.121943 0.000000 0.000000 0.000000 -2.175194 1.586542 10.901322 -1.868865 -3.578896 4.715019 -1.874667 1.568605 10.706924 1.450142 0.902630 -0.163131 -70.857058 -17.701722 31.353743 -176.868780 -81.946616 176.817800 -2.023510 1.415113 10.278603 -4.299887 -2.019222 0.811390 82.548953 -7.595570 8.506596 -166.769593 86.610831 -167.150670 0.000000 -0.000000 0.000000 6.948022 0.579592 -22.587755 -0.645577 0.616756 33.228972 -0.000000 0.000000 -0.000000 -3.302073 -3.816154 -15.776271 0.466875 -1.028897 24.958402 
0.249239 0.049617 0.108418 -4.320320 -5.592233 -3.252806 -0.000000 -0.000000 -0.000000 -0.608309 0.559832 4.901331 -2.084171 1.582650 10.123557 0.000000 0.000000 0.000000 -2.013047 1.636334 10.461167 -1.677047 -3.751728 5.082168 -1.878790 1.609891 10.400138 2.059279 0.585017 0.031651 -71.365972 -17.654925 31.586575 -175.945465 -82.554531 175.912846 -2.038585 1.551811 10.210675 -4.036274 -1.440560 1.051994 81.541113 -7.098566 8.430482 -169.847786 85.353800 -170.423838 0.000000 0.000000 0.000000 6.746985 0.907162 -22.748761 -0.913587 0.519088 33.798174 -0.000000 0.000000 0.000000 -2.962600 -3.524884 -15.988704 0.205064 -0.940138 25.330865 
0.323437 0.056005 0.144617 -4.462172 -5.281138 -3.010388 -0.000000 -0.000000 0.000000 -0.520000 0.718865 5.087211 -2.016802 1.587254 9.983609 0.000000 0.000000 0.000000 -1.926202 1.618107 9.970247 -1.467291 -3.859789 5.050206 -1.934299 1.598144 10.070467 2.153423 0.731313 0.140130 -71.549294 -18.536849 31.016711 -174.628789 -83.816756 174.884604 -2.051498 1.617855 10.152245 -4.332402 -2.057448 1.203672 81.257357 -8.035250 7.548049 -168.943524 85.045747 -169.534510 0.000000 0.000000 0.000000 6.359747 0.933784 -22.505366 -1.088452 0.488469 34.103882 -0.000000 -0.000000 0.000000 -3.036905 -3.536348 -16.257643 0.348441 -0.799230 25.758288 
0.409403 0.084006 0.212539 -4.632458 -5.062985 -2.809047 -0.000000 -0.000000 0.000000 -0.520420 0.794924 5.021470 -1.937866 1.564914 9.845931 0.000000 0.000000 0.000000 -1.886513 1.553009 9.769852 -1.302407 -3.738675 4.829898 -1.942710 1.542507 9.795863 1.905766 0.881634 0.139389 -71.832666 -19.131567 30.157855 -174.475399 -84.565444 174.679376 -2.025986 1.611468 10.084240 -4.709207 -2.315063 1.206205 81.400895 -8.709735 7.019645 -169.834063 84.628407 -170.351949 0.000000 0.000000 0.000000 6.169262 1.015719 -22.195736 -1.146097 0.572787 33.875259 -0.000000 -0.000000 0.000000 -3.441217 -3.614346 -16.026515 0.365571 -0.853516 25.655234 
0.512700 0.119370 0.272489 -4.787050 -5.070027 -2.586716 -0.000000 -0.000000 0.000000 -0.543007 0.792814 4.881450 -1.909097 1.566773 9.863057 0.000000 0.000000 0.000000 -1.913039 1.503962 9.776581 -1.133316 -3.589875 4.737362 -1.933597 1.512311 9.660967 1.645849 0.915321 0.109599 -71.597645 -19.658508 29.200580 -176.368944 -83.658668 176.515506 -1.963588 1.576036 9.959465 -4.948635 -2.142348 1.164188 81.588272 -8.746030 7.108920 -171.564414 84.284406 -171.953054 0.000000 0.000000 0.000000 6.053890 1.006053 -21.678424 -1.110041 0.607213 33.430022 -0.000000 -0.000000 0.000000 -3.981203 -3.597637 -15.663043 0.331597 -1.002727 25.050436 
0.624278 0.153209 0.317725 -4.891407 -5.261303 -2.402024 -0.000000 -0.000000 0.000000 -0.564344 0.779258 4.940050 -1.878719 1.564459 9.908836 0.000000 0.000000 0.000000 -1.911984 1.472975 9.801130 -0.874695 -3.433200 4.649457 -1.902083 1.508147 9.630474 1.593071 0.853857 0.125288 -71.483265 -20.060254 28.487120 -177.520337 -83.070724 177.609501 -1.884903 1.545322 9.885296 -4.906488 -1.867755 1.150318 81.558767 -8.570011 7.067163 -172.887003 84.043890 -173.135614 0.000000 0.000000 0.000000 5.977111 1.037508 -21.447218 -1.048880 0.587063 33.232222 -0.000000 -0.000000 -0.000000 -4.360538 -3.501384 -15.470414 0.297973 -1.102503 24.510407 
0.742162 0.180306 0.351702 -4.950476 -5.502943 -2.271238 -0.000000 -0.000000 0.000000 -0.557632 0.764023 5.055019 -1.826712 1.571576 9.935084 0.000000 0.000000 0.000000 -1.873180 1.468512 9.799971 -0.619966 -3.198751 4.506260 -1.852273 1.518949 9.689077 1.639091 0.872693 0.177928 -71.810855 -19.739441 28.458986 -177.929213 -83.126717 177.974926 -1.791087 1.520495 9.863079 -4.725762 -1.736323 1.148329 81.323395 -8.217231 7.133398 -173.725112 84.152349 -173.877103 0.000000 0.000000 0.000000 5.930246 1.053150 -21.375055 -1.004704 0.562036 33.134591 -0.000000 -0.000000 -0.000000 -4.487517 -3.346018 -15.534410 0.284359 -1.098986 24.288748 
0.863488 0.198824 0.373179 -4.906091 -5.714845 -2.220324 -0.000000 0.000000 0.000000 -0.537633 0.748558 5.165971 -1.768666 1.585599 9.946640 0.000000 0.000000 0.000000 -1.824348 1.479324 9.786991 -0.232151 -2.558567 4.222116 -1.797462 1.529439 9.741478 1.798225 0.917616 0.223050 -72.233738 -19.278756 28.753040 -177.836247 -83.529500 177.864076 -1.714384 1.503371 9.861336 -4.611428 -1.704141 1.169897 81.002318 -8.019125 7.199350 -174.432329 84.045995 -174.550293 0.000000 0.000000 0.000000 5.881147 1.069792 -21.309178 -0.967960 0.532714 33.034810 -0.000000 -0.000000 -0.000000 -4.490477 -3.180058 -15.710328 0.286873 -1.058079 24.202756 
0.984784 0.211955 0.390514 -4.764658 -5.922503 -2.275068 -0.000000 0.000000 0.000000 -0.506051 0.726823 5.206726 -1.693956 1.585586 9.906017 0.000000 0.000000 0.000000 -1.750241 1.491515 9.753232 0.183350 -1.867910 3.909180 -1.730280 1.531099 9.766347 2.046092 0.980474 0.261317 -72.787660 -18.857143 29.106442 -177.535550 -84.062516 177.522964 -1.661112 1.489472 9.842266 -4.559079 -1.695193 1.202005 80.809401 -7.963858 7.165969 -174.857661 84.059333 -174.970681 0.000000 0.000000 0.000000 5.828038 1.105058 -21.264118 -0.956095 0.507926 32.902122 -0.000000 -0.000000 -0.000000 -4.442762 -3.034780 -15.848190 0.282836 -1.026099 24.092190 
1.109460 0.223008 0.407566 -4.720758 -6.080408 -2.330024 -0.000000 0.000000 0.000000 -0.476156 0.699571 5.146358 -1.618222 1.579946 9.844910 0.000000 0.000000 0.000000 -1.663159 1.498874 9.701976 0.599111 -1.231691 3.639244 -1.660129 1.525244 9.770011 2.325172 1.122527 0.299502 -73.309590 -18.573258 29.479051 -177.141082 -84.339599 177.106963 -1.613753 1.479463 9.800630 -4.567687 -1.738565 1.201554 80.755352 -8.095931 7.095921 -175.267276 84.010292 -175.390510 0.000000 0.000000 0.000000 5.762004 1.131621 -21.208485 -0.952859 0.495445 32.749025 -0.000000 -0.000000 -0.000000 -4.377441 -2.926625 -15.906793 0.273772 -1.019070 23.902246 
